<?xml version="1.0" encoding="utf-8"?>
<!-- Generator: Adobe Illustrator 16.0.0, SVG Export Plug-In . SVG Version: 6.00 Build 0)  -->
<!DOCTYPE svg PUBLIC "-//W3C//DTD SVG 1.1//EN" "http://www.w3.org/Graphics/SVG/1.1/DTD/svg11.dtd">
<svg version="1.1" xmlns="http://www.w3.org/2000/svg" xmlns:xlink="http://www.w3.org/1999/xlink" x="0px" y="0px" width="700px"
	 height="550px" viewBox="0 0 700 550" enable-background="new 0 0 700 550" xml:space="preserve">
<g id="Layer_2" display="none">
</g>
<g id="Layer_1">
	<text transform="matrix(1 0 0 1 223.5283 122.3535)" font-family="'ArialMT'" font-size="76">Orbitrap</text>
	<g>
		<path fill-rule="evenodd" clip-rule="evenodd" d="M44.122,353.355c0.284-5.174,0.552-10.012,0.833-15.131
			c20.574-1.197,40.963-0.975,60.895-3.879c28.663-4.181,56.99-10.668,85.47-16.115c9.829-1.881,19.645-3.92,29.551-5.268
			c4.721-0.643,5.875-2.607,6.487-7.074c1.178-8.621,2.642-17.367,5.531-25.516c1.338-3.773,6.227-8.607,9.64-8.717
			c3.961-0.127,9.704,3.48,11.774,7.115c4.184,7.35,6.41,15.814,9.442,23.818c-0.99,0.342-1.98,0.684-2.971,1.023
			c-0.974-3.348-1.653-6.818-2.993-10.014c-2.209-5.27-4.184-10.832-7.462-15.41c-4.61-6.436-11.121-5.971-13.872,1.43
			c-3.596,9.67-5.377,20.012-8.467,32.133c54.199-9.014,106.475-10.979,161.033-9.051c-3.998-9.648-6.748-18.182-10.979-25.91
			c-3.779-6.898-10.776-7.045-15.09-0.449c-3.761,5.75-6.037,12.473-8.969,18.762c-0.705,0.338-1.409,0.672-2.113,1.008
			c-0.59-2.506-2.418-5.639-1.527-7.396c2.32-4.59,5.909-8.523,8.852-12.813c6.663-9.715,17.111-9.504,22.592,1.094
			c3.412,6.604,5.141,14.063,8.111,20.926c0.89,2.045,3.295,4.637,5.232,4.844c25.325,2.676,50.689,4.969,76.74,7.426
			c2.268-9.959,3.057-20.314-0.547-30.455c-0.947-2.666-4.365-6.479-6.296-6.281c-2.711,0.275-6.454,3.359-7.329,6.031
			c-1.742,5.34-1.969,11.205-2.553,16.879c-0.308,3.025-0.053,6.105-1.24,9.078c-1.471-10.377-3.477-20.947,2.748-30.5
			c4.703-7.215,13.26-6.689,16.352,1.508c2.395,6.348,2.743,13.584,3.269,20.48c0.354,4.65-0.566,9.398-0.96,14.686
			c60.938,9.453,119.887,29.861,182.846,25.094c0,11.895,0,22.004,0,32.739c-6.686,0.331-13.108,0.878-19.533,0.933
			c-35.988,0.312-70.996,6.967-106.117,14.293c-35.217,7.347-71.014,11.921-106.591,17.486c-9.919,1.553-11.745,3.943-7.651,13.244
			c2.095,4.763,4.557,9.542,7.758,13.602c5.14,6.515,11.738,6.337,15.831-0.919c3.233-5.735,4.638-12.524,6.651-18.911
			c0.707-2.244,0.813-4.678,1.408-8.359c3.494,10.165-2.297,28.527-9.551,33.421c-5.529,3.731-12.656,2.63-17.072-3.759
			c-4.201-6.082-7.299-12.924-11.099-19.82c-3.236,2.262-6.413,4.593-9.7,6.765c-13.309,8.793-27.5,15.455-43.59,17.055
			c-4.392,0.438-5.813,2.149-5.8,6.6c0.147,46.558,0.048,32.113,0.21,78.671l-3.648,0.898c0.164-48.057,0.097-35.114,0.055-83.172
			c0-0.468-0.271-0.937-0.643-2.141c-18.356-0.72-35.56-5.938-50.123-18.023c-3.665-3.041-6.83-6.684-9.418-11.148
			c16.662,16.137,35.77,25.833,59.719,26.048c0-8.804,0-17.161,0-25.097c-39.576-3.102-79.103-6.201-119.387-9.359
			c-2.372,17.75,1.926,36.528,0.08,55.448c-1.91,19.584-0.357,9.505-0.342,29.28c0.017,19.633,0.005-0.735,0.005,18.898
			c-0.718,0.055-1.435,0.109-2.151,0.164c-0.152-2.447-0.434-4.896-0.439-7.344c-0.097-39.547-0.117-9.096-0.324-48.643
			c-0.014-2.644-1.376-5.279-2.207-8.271c0.715-11.48,1.701-23.829,2.04-36.196c0.056-2.016-2.444-5.576-4.268-5.949
			c-36.264-7.4-72.46-15.304-108.978-21.201c-19.662-3.179-39.9-2.795-59.879-4.012c-2.695-0.168-5.392-0.314-8.428-0.487
			c-0.262-4.407-0.493-8.303-0.794-13.384 M354.829,357.809c0,14.744,0,28.634,0,41.693c17.995,0,35.326,0,52.813,0
			c-5.126-25.082-9.896-48.814-14.846-72.506c-4.178-19.992-4.269-20.094-24.871-20.145c-5.771-0.014-12.433-2.635-15.737,3.662
			c-2.985-1.467-5.449-3.793-7.738-3.635c-36.158,2.494-72.3,5.24-108.421,8.211c-2.091,0.17-5.634,2.664-5.704,4.205
			c-0.497,10.899-0.266,21.831-0.266,33.449c3.793,0,6.498,0,9.201,0c33.793,0,67.586,0.088,101.379-0.126
			c3.752-0.026,7.492-1.792,12.773-3.146c-0.091-0.066,1.539,1.248,3.285,2.392c1.492,0.978,3.118,1.757,6.41,3.579
			C358.77,356.682,356.717,357.269,354.829,357.809z M655.072,344.397c-0.551-1.085-1.104-2.174-1.654-3.263
			c-61.264,4.539-118.848-16.236-178.258-24.748c-0.813,2.145-1.275,3.553-1.869,4.908c-4.092,9.369-7.044,19.514-12.662,27.858
			c-5.402,8.021-5.48,18.546-15.128,24.971c-7.61,5.065-12.152,14.739-18.659,23.146c2.176-0.104,3.359-0.053,4.503-0.23
			c28.624-4.462,57.306-8.578,85.845-13.531c31.944-5.54,63.056-15.785,95.875-16.408c13.434-0.254,26.854-1.332,42.621-2.156
			c-2.426-4.547-4.093-7.672-5.413-10.148C651.798,351.492,653.436,347.945,655.072,344.397z M230.028,357.545
			c0,9.84,0.198,18.819-0.081,27.783c-0.146,4.67,1.471,6.445,6.197,7.184c36.41,5.689,73.04,8.271,109.867,8.352
			c0.897,0,1.795-0.478,2.859-0.778c0-14.241,0-28.161,0-42.54C309.414,357.545,270.277,357.545,230.028,357.545z M405.984,354.223
			c-0.3,4.037-1.32,7.914-0.707,11.51c1.381,8.12,3.309,16.174,5.565,24.098c0.856,3.01,3.218,5.592,4.896,8.369
			c2.828-1.75,6.524-2.87,8.333-5.361c6.689-9.217,16.688-16.086,19.226-28.414c0.722-3.506,7.661-5.57,1.511-10.943
			c3.929-1.114,8.285-1,9.68-2.975c7.299-10.357,12.654-21.726,15.6-35.688c-26.133-2.723-51.042-5.316-76.857-8.008
			c2.76,13.561,4.905,25.341,7.672,36.974C401.801,347.549,404.329,350.922,405.984,354.223z M49.403,352.316
			c58.979,0,117.188,0,175.599,0c0-11.813,0-23.193,0-35.564c-58.92,9.174-115.684,28.666-175.599,24.57
			C49.403,346.178,49.403,348.887,49.403,352.316z M49.229,357.527c0.157,2.682,0.291,4.949,0.514,8.734
			c60.357-3.959,116.937,15.283,175.279,24.559c0-11.84,0-22.467,0-33.293C166.372,357.527,108.175,357.527,49.229,357.527z
			 M410.629,405.16c-18.883,0-37.766,0-56.938,0c0,9.686,0,18.034,0,27.187C376.615,430.226,395.176,420.624,410.629,405.16z"/>
		<path fill-rule="evenodd" clip-rule="evenodd" d="M344.283,184.41c0,8.047,0,14.689,0,21.102
			c-14.282,1.943-28.268,3.111-41.938,5.85c-37.164,7.434-71.717,21.943-104.271,41.098c-31.693,18.648-62.62,38.691-97.232,51.816
			c-17.139,6.502-34.645,11.408-53.773,11.275c0-7.029,0-13.672,0-21.078c5.812-0.645,11.971-1.031,18.021-2.053
			c25.752-4.357,49.338-14.742,72.047-27.084c18.238-9.91,36.027-20.656,53.904-31.219c38.687-22.865,79.505-40.09,124.22-46.883
			C324.614,185.814,334.117,185.373,344.283,184.41z M50.878,311.477c17.986-0.338,34.638-4.375,49.958-11.654
			c25.49-12.117,50.959-24.592,75.143-39.08c36.508-21.875,73.99-41.084,115.572-50.969c15.947-3.791,32.362-5.613,48.688-8.355
			c0-3.711,0-7.834,0-12.174c-1.681-0.072-2.907-0.252-4.114-0.16c-4.991,0.373-10.002,0.627-14.958,1.281
			c-46.983,6.191-89.602,24.156-129.949,48.258c-43.993,26.277-87.162,54.504-140.339,59.668
			C50.878,302.607,50.878,306.531,50.878,311.477z"/>
		<path fill-rule="evenodd" clip-rule="evenodd" d="M359.079,527.19c0-7.052,0-13.694,0-19.359
			c19.208-3.283,38.136-5.381,56.467-9.894c35.456-8.725,68.337-23.939,99.44-43.037c28.57-17.544,57.208-35.045,88.839-46.678
			c10.753-3.953,21.966-6.794,33.133-9.44c6.253-1.479,12.849-1.521,19.989-2.286c0,7.462,0,14.307,0,21.717
			c-5.768,0.619-11.947,0.947-18.006,1.99c-31.34,5.39-59.154,19.637-86.51,34.922c-25.528,14.26-50.461,29.682-76.579,42.748
			c-32.414,16.217-66.873,26.643-103.324,29.276C368.314,527.453,364.061,527.19,359.079,527.19z M653.367,399.191
			c-14.834,3.64-28.629,6.07-41.779,10.443c-32.279,10.73-61.334,28.133-90.065,45.926c-33.846,20.959-69.514,37.742-108.286,47.061
			c-16.415,3.943-33.338,5.781-49.974,8.566c0,3.83,0,8.13,0,12.821c7.408-0.692,14.156-1.083,20.834-1.983
			c46.69-6.299,89.095-24.176,129.128-48.275c29.158-17.552,57.934-35.967,90.182-47.427c16.096-5.718,32.988-9.187,49.961-13.792
			C653.367,409.774,653.367,405.85,653.367,399.191z"/>
		<path fill-rule="evenodd" clip-rule="evenodd" d="M359.097,206.408c0-7.141,0-13.813,0-22.285
			c13.171,1.537,26.297,2.314,39.121,4.699c41.052,7.631,78.747,23.996,114.623,45.039c22.207,13.023,44.432,26.1,67.264,37.963
			c24.073,12.506,49.442,21.701,77.247,22.256c0,7.344,0,13.998,0,22.895c-12.807-2.43-25.123-3.953-36.979-7.174
			c-27.74-7.543-53.028-20.852-77.529-35.521c-32.632-19.539-65.028-39.361-101.256-51.932
			C414.933,213.102,387.715,207.168,359.097,206.408z M653.4,297.992c-28.459-1.91-53.971-11.402-78.223-24.123
			c-21.027-11.029-41.594-22.99-61.949-35.225c-26.083-15.678-53.482-28.305-82.391-37.658c-21.938-7.1-44.367-11.58-67.654-12.047
			c0,4.924,0,9.229,0,13.729c40.768,1.496,78.547,12.777,114.189,30.566c25.02,12.488,48.858,27.34,73.263,41.063
			c25.563,14.377,51.558,27.832,80.46,34.318c7.159,1.607,14.544,2.225,22.305,3.365C653.4,306.641,653.4,302.719,653.4,297.992z"/>
		<path fill-rule="evenodd" clip-rule="evenodd" d="M220.081,494.81c-10.51-5.914-19.603-11-28.661-16.137
			c-21.954-12.445-43.58-25.513-65.924-37.212c-24.457-12.807-50.168-22.353-78.611-22.951c0-7.185,0-13.836,0-21.931
			c7.49,0.817,14.871,1.112,22.041,2.495c30.881,5.957,58.567,19.876,85.586,35.253c20.85,11.864,41.552,23.993,62.181,36.239
			c1.678,0.995,3.07,3.729,3.237,5.767C220.375,481.782,220.081,487.29,220.081,494.81z M214.537,487.437
			c0.635-0.398,1.271-0.798,1.906-1.196c-2.127-4.372,2.707-9.979-4.102-13.761c-15.086-8.376-29.854-17.321-44.73-26.07
			c-25.479-14.984-51.197-29.583-79.605-38.337c-11.78-3.631-24.082-5.57-36.816-8.43c0,6.322,0,10.614,0,15.003
			c21.087,1.328,40.863,6.335,59.018,15.506c27.648,13.968,54.557,29.403,81.734,44.3
			C199.559,478.626,207.01,483.101,214.537,487.437z"/>
		<path fill-rule="evenodd" clip-rule="evenodd" d="M344.434,506.116c0,7.567,0,13.996,0,22.278
			c-13.162-1.54-26.256-1.623-38.538-4.826c-22.413-5.842-44.341-13.543-66.483-20.437c-3.793-1.181-5.695-3.231-5.322-7.606
			c0.441-5.172,0.104-10.41,0.104-16.798C269.639,494.396,305.553,505.12,344.434,506.116z M238.834,485.032
			c-1.473,13.072-1.616,13.48,9.354,17.321c15.558,5.445,31.135,11.104,47.111,15.016c14.604,3.576,29.748,4.954,45.016,7.357
			c0-6.043,0-10.174,0-14.903C304.818,508.544,271.623,498.911,238.834,485.032z"/>
		<path fill-rule="evenodd" clip-rule="evenodd" d="M354.829,357.809c1.888-0.54,3.94-1.127,8.278-2.365
			c-3.292-1.822-4.918-2.602-6.41-3.579c-1.746-1.144-3.376-2.458-3.285-2.392c-5.281,1.354-9.021,3.119-12.773,3.146
			c-33.793,0.214-67.586,0.126-101.379,0.126c-2.703,0-5.408,0-9.201,0c0-11.618-0.231-22.55,0.266-33.449
			c0.07-1.541,3.613-4.035,5.704-4.205c36.121-2.971,72.263-5.717,108.421-8.211c2.289-0.158,4.753,2.168,7.738,3.635
			c3.305-6.297,9.967-3.676,15.737-3.662c20.603,0.051,20.693,0.152,24.871,20.145c4.95,23.691,9.72,47.424,14.846,72.506
			c-17.486,0-34.817,0-52.813,0C354.829,386.442,354.829,372.553,354.829,357.809z M376.961,356.26
			c-0.023-1.254-0.043-2.509-0.066-3.762c-3.017,0.162-6.035,0.287-9.034,0.622c-0.114,0.012-0.053,2.999,0.009,3.001
			C370.895,356.277,373.928,356.26,376.961,356.26z"/>
		<path fill-rule="evenodd" clip-rule="evenodd" d="M655.072,344.397c-1.637,3.548-3.274,7.095-4.8,10.397
			c1.32,2.477,2.987,5.602,5.413,10.148c-15.768,0.824-29.188,1.902-42.621,2.156c-32.819,0.623-63.931,10.868-95.875,16.408
			c-28.539,4.953-57.221,9.069-85.845,13.531c-1.144,0.178-2.327,0.127-4.503,0.23c6.507-8.406,11.049-18.08,18.659-23.146
			c9.647-6.425,9.726-16.949,15.128-24.971c5.618-8.345,8.57-18.489,12.662-27.858c0.594-1.355,1.057-2.764,1.869-4.908
			c59.41,8.512,116.994,29.287,178.258,24.748C653.969,342.224,654.521,343.313,655.072,344.397z"/>
		<path fill-rule="evenodd" clip-rule="evenodd" d="M230.028,357.545c40.249,0,79.386,0,118.843,0c0,14.379,0,28.299,0,42.54
			c-1.064,0.301-1.962,0.778-2.859,0.778c-36.827-0.08-73.457-2.662-109.867-8.352c-4.727-0.738-6.344-2.514-6.197-7.184
			C230.227,376.364,230.028,367.385,230.028,357.545z"/>
		<path fill-rule="evenodd" clip-rule="evenodd" d="M405.984,354.223c-1.655-3.301-4.184-6.674-5.082-10.438
			c-2.767-11.633-4.912-23.413-7.672-36.974c25.815,2.691,50.725,5.285,76.857,8.008c-2.945,13.962-8.301,25.33-15.6,35.688
			c-1.395,1.975-5.751,1.86-9.68,2.975c6.15,5.373-0.789,7.438-1.511,10.943c-2.538,12.328-12.536,19.197-19.226,28.414
			c-1.809,2.491-5.505,3.611-8.333,5.361c-1.679-2.777-4.04-5.359-4.896-8.369c-2.257-7.924-4.185-15.978-5.565-24.098
			C404.664,362.137,405.685,358.26,405.984,354.223z M419.516,350.932c-2.125,1.476-3.694,2.566-5.261,3.655
			c1.499,0.833,3.024,2.37,4.491,2.317c1.734-0.061,3.418-1.496,5.123-2.335C422.578,353.49,421.287,352.41,419.516,350.932z"/>
		<path fill-rule="evenodd" clip-rule="evenodd" d="M49.403,352.316c0-3.43,0-6.139,0-10.994
			c59.915,4.096,116.679-15.396,175.599-24.57c0,12.371,0,23.752,0,35.564C166.592,352.316,108.383,352.316,49.403,352.316z"/>
		<path fill-rule="evenodd" clip-rule="evenodd" d="M49.229,357.527c58.946,0,117.144,0,175.793,0c0,10.826,0,21.453,0,33.293
			c-58.343-9.275-114.922-28.518-175.279-24.559C49.52,362.477,49.386,360.209,49.229,357.527z"/>
		<path fill-rule="evenodd" clip-rule="evenodd" d="M50.878,311.477c0-4.945,0-8.869,0-13.186
			c53.177-5.164,96.346-33.391,140.339-59.668c40.348-24.102,82.966-42.066,129.949-48.258c4.956-0.654,9.967-0.908,14.958-1.281
			c1.207-0.092,2.434,0.088,4.114,0.16c0,4.34,0,8.463,0,12.174c-16.325,2.742-32.74,4.564-48.688,8.355
			c-41.582,9.885-79.064,29.094-115.572,50.969c-24.184,14.488-49.652,26.963-75.143,39.08
			C85.516,307.102,68.864,311.139,50.878,311.477z"/>
		<path fill-rule="evenodd" clip-rule="evenodd" d="M653.367,399.191c0,6.658,0,10.583,0,13.34
			c-16.973,4.605-33.865,8.074-49.961,13.792c-32.248,11.46-61.023,29.875-90.182,47.427c-40.033,24.1-82.438,41.977-129.128,48.275
			c-6.678,0.9-13.426,1.291-20.834,1.983c0-4.691,0-8.991,0-12.821c16.636-2.785,33.559-4.623,49.974-8.566
			c38.772-9.318,74.44-26.102,108.286-47.061c28.731-17.793,57.786-35.195,90.065-45.926
			C624.738,405.262,638.533,402.831,653.367,399.191z"/>
		<path fill-rule="evenodd" clip-rule="evenodd" d="M653.4,297.992c0,4.727,0,8.648,0,13.988
			c-7.761-1.141-15.146-1.758-22.305-3.365c-28.902-6.486-54.896-19.941-80.46-34.318c-24.404-13.723-48.243-28.574-73.263-41.063
			c-35.643-17.789-73.422-29.07-114.189-30.566c0-4.5,0-8.805,0-13.729c23.287,0.467,45.717,4.947,67.654,12.047
			c28.908,9.354,56.308,21.98,82.391,37.658c20.355,12.234,40.922,24.195,61.949,35.225
			C599.43,286.59,624.941,296.082,653.4,297.992z"/>
		<path fill-rule="evenodd" clip-rule="evenodd" d="M214.537,487.437c-7.527-4.336-14.979-8.811-22.596-12.985
			c-27.178-14.896-54.086-30.332-81.734-44.3c-18.154-9.171-37.931-14.178-59.018-15.506c0-4.389,0-8.681,0-15.003
			c12.734,2.859,25.036,4.799,36.816,8.43c28.408,8.754,54.126,23.353,79.605,38.337c14.877,8.749,29.645,17.694,44.73,26.07
			c6.809,3.782,1.975,9.389,4.102,13.761C215.808,486.639,215.172,487.038,214.537,487.437z"/>
		<path fill-rule="evenodd" clip-rule="evenodd" d="M238.834,485.032c32.789,13.879,65.984,23.512,101.48,24.791
			c0,4.729,0,8.86,0,14.903c-15.268-2.403-30.411-3.781-45.016-7.357c-15.977-3.912-31.554-9.57-47.111-15.016
			C237.218,498.513,237.361,498.104,238.834,485.032z"/>
		<path fill-rule="evenodd" clip-rule="evenodd" d="M376.961,356.26c-3.033,0-6.066,0.018-9.092-0.139
			c-0.062-0.002-0.123-2.989-0.009-3.001c2.999-0.335,6.018-0.46,9.034-0.622C376.918,353.751,376.938,355.006,376.961,356.26z"/>
		<path fill-rule="evenodd" clip-rule="evenodd" d="M419.516,350.932c1.771,1.479,3.063,2.559,4.354,3.638
			c-1.705,0.839-3.389,2.274-5.123,2.335c-1.467,0.053-2.992-1.484-4.491-2.317C415.821,353.498,417.391,352.407,419.516,350.932z"
			/>
	</g>
</g>
</svg>
