<?xml version="1.0" encoding="utf-8"?>
<!-- Generator: Adobe Illustrator 16.0.0, SVG Export Plug-In . SVG Version: 6.00 Build 0)  -->
<!DOCTYPE svg PUBLIC "-//W3C//DTD SVG 1.1//EN" "http://www.w3.org/Graphics/SVG/1.1/DTD/svg11.dtd">
<svg version="1.1" xmlns="http://www.w3.org/2000/svg" xmlns:xlink="http://www.w3.org/1999/xlink" x="0px" y="0px" width="700px"
	 height="550px" viewBox="0 0 700 550" enable-background="new 0 0 700 550" xml:space="preserve">
<g id="Layer_2" display="none">
</g>
<g id="Layer_1">
	
		<line fill="none" stroke="#000000" stroke-width="4.375" stroke-miterlimit="10" x1="18.768" y1="240.319" x2="225.476" y2="240.319"/>
	
		<line fill="none" stroke="#000000" stroke-width="4.375" stroke-miterlimit="10" x1="249.548" y1="240.319" x2="456.257" y2="240.319"/>
	
		<line fill="none" stroke="#000000" stroke-width="4.375" stroke-miterlimit="10" x1="478.142" y1="240.319" x2="684.85" y2="240.319"/>
	
		<line fill="none" stroke="#000000" stroke-width="4.375" stroke-miterlimit="10" x1="18.768" y1="471.096" x2="225.476" y2="471.096"/>
	
		<line fill="none" stroke="#000000" stroke-width="4.375" stroke-miterlimit="10" x1="249.548" y1="471.096" x2="456.257" y2="471.096"/>
	
		<line fill="none" stroke="#000000" stroke-width="4.375" stroke-miterlimit="10" x1="478.142" y1="471.096" x2="684.85" y2="471.096"/>
	<polyline points="684.85,86.107 684.85,207.166 18.768,207.166 	"/>
	<circle cx="620.954" cy="299.375" r="29.529"/>
	<circle cx="491.351" cy="373.926" r="24.608"/>
	<circle cx="369.951" cy="312.5" r="18.203"/>
	<circle cx="269.877" cy="338.522" r="16.405"/>
	<circle cx="196.053" cy="354.926" r="13.125"/>
	<circle cx="91.059" cy="369.799" r="12.824"/>
	<circle cx="45.124" cy="330.702" r="7.82"/>
	<circle cx="22.155" cy="352.414" r="8.307"/>
	<circle cx="425.729" cy="364.797" r="24.608"/>
	<circle cx="638.999" cy="399.445" r="32.811"/>
	<text transform="matrix(1 0 0 1 116.8086 122.3535)" font-family="'ArialMT'" font-size="76">TIMS</text>
</g>
</svg>
