<?xml version="1.0" encoding="utf-8"?>
<!-- Generator: Adobe Illustrator 16.0.0, SVG Export Plug-In . SVG Version: 6.00 Build 0)  -->
<!DOCTYPE svg PUBLIC "-//W3C//DTD SVG 1.1//EN" "http://www.w3.org/Graphics/SVG/1.1/DTD/svg11.dtd">
<svg version="1.1" xmlns="http://www.w3.org/2000/svg" xmlns:xlink="http://www.w3.org/1999/xlink" x="0px" y="0px" width="700px"
	 height="550px" viewBox="0 0 700 550" enable-background="new 0 0 700 550" xml:space="preserve">
<g id="Layer_2" display="none">
</g>
<g id="Layer_1">
	
		<rect x="65.256" y="285.771" fill="none" stroke="#231F20" stroke-width="4" stroke-miterlimit="10" width="442.484" height="128.455"/>
	<g>
		<g>
			
				<line fill="none" stroke="#231F20" stroke-width="3" stroke-linecap="round" stroke-miterlimit="10" x1="570.269" y1="350.26" x2="570.269" y2="350.26"/>
			
				<line fill="none" stroke="#231F20" stroke-width="3" stroke-linecap="round" stroke-miterlimit="10" stroke-dasharray="0,8.1349" x1="577.803" y1="347.191" x2="649.379" y2="318.049"/>
			
				<line fill="none" stroke="#231F20" stroke-width="3" stroke-linecap="round" stroke-miterlimit="10" x1="653.146" y1="316.514" x2="653.146" y2="316.514"/>
		</g>
	</g>
	<g>
		<g>
			
				<line fill="none" stroke="#231F20" stroke-width="3" stroke-linecap="round" stroke-miterlimit="10" x1="570.269" y1="350.26" x2="570.269" y2="350.26"/>
			
				<line fill="none" stroke="#231F20" stroke-width="3" stroke-linecap="round" stroke-miterlimit="10" stroke-dasharray="0,7.8847" x1="578.153" y1="350.234" x2="653.058" y2="350.01"/>
			
				<line fill="none" stroke="#231F20" stroke-width="3" stroke-linecap="round" stroke-miterlimit="10" x1="657" y1="349.998" x2="657" y2="349.998"/>
		</g>
	</g>
	<g>
		<g>
			
				<line fill="none" stroke="#231F20" stroke-width="3" stroke-linecap="round" stroke-miterlimit="10" x1="570.269" y1="350.26" x2="570.269" y2="350.26"/>
			
				<line fill="none" stroke="#231F20" stroke-width="3" stroke-linecap="round" stroke-miterlimit="10" stroke-dasharray="0,8.1172" x1="577.803" y1="353.279" x2="649.379" y2="381.973"/>
			
				<line fill="none" stroke="#231F20" stroke-width="3" stroke-linecap="round" stroke-miterlimit="10" x1="653.146" y1="383.482" x2="653.146" y2="383.482"/>
		</g>
	</g>
	<g>
		<g>
			
				<line fill="none" stroke="#231F20" stroke-width="3" stroke-linecap="round" stroke-miterlimit="10" x1="570.269" y1="350.26" x2="570.269" y2="350.26"/>
			
				<line fill="none" stroke="#231F20" stroke-width="3" stroke-linecap="round" stroke-miterlimit="10" stroke-dasharray="0,7.8301" x1="577.803" y1="352.391" x2="649.379" y2="372.643"/>
			
				<line fill="none" stroke="#231F20" stroke-width="3" stroke-linecap="round" stroke-miterlimit="10" x1="653.146" y1="373.709" x2="653.146" y2="373.709"/>
		</g>
	</g>
	<g>
		<g>
			
				<line fill="none" stroke="#231F20" stroke-width="3" stroke-linecap="round" stroke-miterlimit="10" x1="570.269" y1="350.26" x2="570.269" y2="350.26"/>
			
				<line fill="none" stroke="#231F20" stroke-width="3" stroke-linecap="round" stroke-miterlimit="10" stroke-dasharray="0,7.6366" x1="577.803" y1="351.504" x2="649.379" y2="363.338"/>
			
				<line fill="none" stroke="#231F20" stroke-width="3" stroke-linecap="round" stroke-miterlimit="10" x1="653.146" y1="363.961" x2="653.146" y2="363.961"/>
		</g>
	</g>
	<g>
		<g>
			
				<line fill="none" stroke="#231F20" stroke-width="3" stroke-linecap="round" stroke-miterlimit="10" x1="570.269" y1="350.26" x2="570.269" y2="350.26"/>
			
				<line fill="none" stroke="#231F20" stroke-width="3" stroke-linecap="round" stroke-miterlimit="10" stroke-dasharray="0,7.9092" x1="578.153" y1="350.881" x2="653.058" y2="356.799"/>
			
				<line fill="none" stroke="#231F20" stroke-width="3" stroke-linecap="round" stroke-miterlimit="10" x1="657" y1="357.109" x2="657" y2="357.109"/>
		</g>
	</g>
	<g>
		<g>
			
				<line fill="none" stroke="#231F20" stroke-width="3" stroke-linecap="round" stroke-miterlimit="10" x1="570.269" y1="350.26" x2="570.269" y2="350.26"/>
			
				<line fill="none" stroke="#231F20" stroke-width="3" stroke-linecap="round" stroke-miterlimit="10" stroke-dasharray="0,8.3296" x1="578.557" y1="349.426" x2="649.003" y2="342.338"/>
			
				<line fill="none" stroke="#231F20" stroke-width="3" stroke-linecap="round" stroke-miterlimit="10" x1="653.146" y1="341.92" x2="653.146" y2="341.92"/>
		</g>
	</g>
	<g>
		<g>
			
				<line fill="none" stroke="#231F20" stroke-width="3" stroke-linecap="round" stroke-miterlimit="10" x1="570.269" y1="350.26" x2="570.269" y2="350.26"/>
			
				<line fill="none" stroke="#231F20" stroke-width="3" stroke-linecap="round" stroke-miterlimit="10" stroke-dasharray="0,7.6889" x1="577.803" y1="348.725" x2="649.379" y2="334.154"/>
			
				<line fill="none" stroke="#231F20" stroke-width="3" stroke-linecap="round" stroke-miterlimit="10" x1="653.146" y1="333.387" x2="653.146" y2="333.387"/>
		</g>
	</g>
	<g>
		<g>
			
				<line fill="none" stroke="#231F20" stroke-width="3" stroke-linecap="round" stroke-miterlimit="10" x1="570.269" y1="350.26" x2="570.269" y2="350.26"/>
			
				<line fill="none" stroke="#231F20" stroke-width="3" stroke-linecap="round" stroke-miterlimit="10" stroke-dasharray="0,7.8444" x1="577.803" y1="348.076" x2="649.379" y2="327.33"/>
			
				<line fill="none" stroke="#231F20" stroke-width="3" stroke-linecap="round" stroke-miterlimit="10" x1="653.146" y1="326.238" x2="653.146" y2="326.238"/>
		</g>
	</g>
	
		<line fill="none" stroke="#231F20" stroke-width="2" stroke-linecap="round" stroke-miterlimit="10" x1="507.74" y1="349.998" x2="570.269" y2="349.998"/>
	
		<line fill="none" stroke="#231F20" stroke-width="2" stroke-linecap="round" stroke-miterlimit="10" x1="65.256" y1="349.998" x2="15" y2="349.998"/>
	<text transform="matrix(1 0 0 1 178.1997 376.7793)" font-family="'ArialMT'" font-size="76">HILIC</text>
	<polyline fill="none" stroke="#231F20" stroke-width="3" stroke-linecap="round" stroke-miterlimit="10" points="663,341.822 
		697.412,307.412 697.412,173.666 	"/>
	<polyline fill="none" stroke="#231F20" stroke-width="3" stroke-linecap="round" stroke-miterlimit="10" points="663,357.41 
		697.412,391.822 697.412,526.332 	"/>
	<rect x="507.74" y="341.92" width="32.76" height="15.189"/>
	<rect x="32.497" y="341.92" width="32.76" height="15.189"/>
	<g>
		<path fill-rule="evenodd" clip-rule="evenodd" d="M548.536,367.129c-2.076-5.297-4.922-10.184-7.897-15.193
			c-0.387,0.637-0.709,1.154-1.017,1.678c-2.579,4.398-5.132,8.816-6.899,13.621c-0.419,1.139-0.772,2.367-0.818,3.568
			c-0.145,3.699,2.359,7.115,5.906,8.313c3.629,1.223,7.64-0.031,9.869-3.098C549.71,373.225,549.765,370.264,548.536,367.129z"/>
		<g>
			<path fill="#D1D3D4" d="M539.052,376.232c0,0,0.179-0.277,0.48-0.551c0.151-0.135,0.335-0.252,0.544-0.352
				c0.21-0.1,0.45-0.127,0.708-0.188c0.514-0.129,1.111-0.229,1.71-0.357c0.295-0.078,0.594-0.139,0.865-0.221
				c0.264-0.082,0.499-0.189,0.621-0.266c0.276-0.213,0.586-0.463,0.816-0.662c0.23-0.201,0.395-0.391,0.548-0.598
				c0.285-0.459,0.567-1.008,0.826-1.496c0.257-0.479,0.455-0.908,0.748-1.16c0.133-0.131,0.277-0.223,0.377-0.287
				c0.091-0.064,0.171-0.092,0.165-0.094l0.018,0.004c-0.004,0,0.041,0.061,0.08,0.162c0.05,0.104,0.109,0.252,0.152,0.436
				c0.123,0.375,0.12,0.857,0.091,1.459c-0.002,0.301-0.025,0.627-0.09,0.99c-0.03,0.354-0.152,0.76-0.305,1.182
				c-0.177,0.441-0.454,0.875-0.735,1.236c-0.246,0.314-0.496,0.635-0.746,0.955c-0.499,0.506-0.976,0.781-1.417,1.021
				c-0.438,0.229-0.854,0.406-1.255,0.523c-0.798,0.232-1.523,0.301-2.142,0.27c-0.308-0.018-0.586,0-0.839-0.121
				c-0.253-0.105-0.476-0.305-0.656-0.506c-0.181-0.188-0.321-0.471-0.418-0.615c-0.096-0.162-0.142-0.307-0.142-0.297
				L539.052,376.232z"/>
		</g>
	</g>
	<g>
		<path fill-rule="evenodd" clip-rule="evenodd" d="M558.328,404.281c-2.076-5.297-4.922-10.184-7.897-15.191
			c-0.387,0.637-0.709,1.152-1.016,1.676c-2.579,4.398-5.132,8.816-6.9,13.621c-0.419,1.141-0.771,2.369-0.818,3.568
			c-0.144,3.701,2.359,7.115,5.907,8.313c3.628,1.225,7.639-0.031,9.868-3.096C559.503,410.377,559.557,407.416,558.328,404.281z"/>
		<g>
			<path fill="#D1D3D4" d="M548.844,413.387c0,0,0.179-0.279,0.48-0.553c0.151-0.135,0.335-0.25,0.544-0.352
				c0.21-0.098,0.45-0.127,0.708-0.188c0.514-0.127,1.111-0.229,1.71-0.357c0.295-0.078,0.595-0.137,0.865-0.219
				c0.265-0.082,0.5-0.191,0.621-0.268c0.276-0.213,0.586-0.461,0.816-0.662c0.229-0.201,0.395-0.389,0.548-0.598
				c0.285-0.459,0.566-1.008,0.826-1.494c0.257-0.48,0.455-0.91,0.748-1.162c0.133-0.131,0.277-0.223,0.377-0.287
				c0.091-0.064,0.171-0.092,0.165-0.094l0.018,0.004c-0.004,0,0.041,0.061,0.08,0.162c0.05,0.104,0.109,0.252,0.151,0.436
				c0.124,0.375,0.121,0.857,0.092,1.459c-0.002,0.301-0.025,0.627-0.09,0.99c-0.03,0.354-0.152,0.76-0.305,1.182
				c-0.177,0.441-0.454,0.875-0.735,1.236c-0.246,0.314-0.496,0.635-0.746,0.955c-0.499,0.506-0.976,0.781-1.417,1.023
				c-0.438,0.229-0.854,0.406-1.254,0.521c-0.799,0.234-1.523,0.301-2.142,0.27c-0.309-0.016-0.587,0.002-0.84-0.119
				c-0.253-0.107-0.475-0.307-0.655-0.508c-0.182-0.188-0.322-0.469-0.418-0.615c-0.097-0.162-0.143-0.305-0.143-0.295
				L548.844,413.387z"/>
		</g>
	</g>
	<g>
		<path fill-rule="evenodd" clip-rule="evenodd" d="M539.808,437.793c-2.075-5.297-4.922-10.184-7.897-15.191
			c-0.387,0.637-0.709,1.152-1.016,1.676c-2.579,4.398-5.132,8.816-6.899,13.621c-0.42,1.141-0.772,2.369-0.819,3.568
			c-0.144,3.701,2.359,7.115,5.907,8.313c3.628,1.225,7.64-0.031,9.868-3.096C540.982,443.889,541.037,440.928,539.808,437.793z"/>
		<g>
			<path fill="#D1D3D4" d="M530.323,446.898c0,0,0.179-0.279,0.48-0.553c0.151-0.135,0.335-0.25,0.544-0.352
				c0.21-0.098,0.45-0.127,0.708-0.188c0.514-0.127,1.111-0.229,1.71-0.357c0.296-0.078,0.595-0.137,0.865-0.221
				c0.265-0.08,0.5-0.189,0.622-0.266c0.275-0.213,0.585-0.461,0.815-0.662s0.396-0.391,0.549-0.598
				c0.285-0.459,0.566-1.008,0.825-1.496c0.258-0.479,0.456-0.908,0.749-1.16c0.133-0.131,0.277-0.223,0.377-0.287
				c0.091-0.064,0.171-0.092,0.165-0.094l0.018,0.004c-0.004,0,0.041,0.061,0.08,0.162c0.05,0.104,0.109,0.252,0.151,0.436
				c0.124,0.375,0.121,0.857,0.092,1.459c-0.002,0.301-0.026,0.629-0.09,0.99c-0.031,0.354-0.153,0.76-0.306,1.182
				c-0.177,0.441-0.454,0.875-0.735,1.236c-0.246,0.314-0.496,0.635-0.746,0.955c-0.498,0.506-0.976,0.781-1.417,1.023
				c-0.438,0.229-0.854,0.406-1.254,0.521c-0.798,0.234-1.523,0.301-2.142,0.27c-0.309-0.016-0.586,0.002-0.84-0.119
				c-0.252-0.107-0.475-0.307-0.655-0.508c-0.182-0.188-0.322-0.469-0.418-0.615c-0.097-0.162-0.143-0.305-0.143-0.295
				L530.323,446.898z"/>
		</g>
	</g>
</g>
</svg>
