<?xml version="1.0" encoding="utf-8"?>
<!-- Generator: Adobe Illustrator 16.0.0, SVG Export Plug-In . SVG Version: 6.00 Build 0)  -->
<!DOCTYPE svg PUBLIC "-//W3C//DTD SVG 1.1//EN" "http://www.w3.org/Graphics/SVG/1.1/DTD/svg11.dtd">
<svg version="1.1" xmlns="http://www.w3.org/2000/svg" xmlns:xlink="http://www.w3.org/1999/xlink" x="0px" y="0px" width="700px"
	 height="550px" viewBox="0 0 700 550" enable-background="new 0 0 700 550" xml:space="preserve">
<g id="Layer_2" display="none">
</g>
<g id="Layer_1">
	
		<rect x="65.256" y="285.772" fill="none" stroke="#231F20" stroke-width="4" stroke-miterlimit="10" width="442.484" height="128.455"/>
	<g>
		<g>
			
				<line fill="none" stroke="#231F20" stroke-width="3" stroke-linecap="round" stroke-miterlimit="10" x1="570.269" y1="350.261" x2="570.269" y2="350.261"/>
			
				<line fill="none" stroke="#231F20" stroke-width="3" stroke-linecap="round" stroke-miterlimit="10" stroke-dasharray="0,8.1349" x1="577.803" y1="347.193" x2="649.379" y2="318.05"/>
			
				<line fill="none" stroke="#231F20" stroke-width="3" stroke-linecap="round" stroke-miterlimit="10" x1="653.146" y1="316.516" x2="653.146" y2="316.516"/>
		</g>
	</g>
	<g>
		<g>
			
				<line fill="none" stroke="#231F20" stroke-width="3" stroke-linecap="round" stroke-miterlimit="10" x1="570.269" y1="350.261" x2="570.269" y2="350.261"/>
			
				<line fill="none" stroke="#231F20" stroke-width="3" stroke-linecap="round" stroke-miterlimit="10" stroke-dasharray="0,7.8847" x1="578.153" y1="350.236" x2="653.058" y2="350.012"/>
			
				<line fill="none" stroke="#231F20" stroke-width="3" stroke-linecap="round" stroke-miterlimit="10" x1="657" y1="350" x2="657" y2="350"/>
		</g>
	</g>
	<g>
		<g>
			
				<line fill="none" stroke="#231F20" stroke-width="3" stroke-linecap="round" stroke-miterlimit="10" x1="570.269" y1="350.261" x2="570.269" y2="350.261"/>
			
				<line fill="none" stroke="#231F20" stroke-width="3" stroke-linecap="round" stroke-miterlimit="10" stroke-dasharray="0,8.1172" x1="577.803" y1="353.281" x2="649.379" y2="381.974"/>
			
				<line fill="none" stroke="#231F20" stroke-width="3" stroke-linecap="round" stroke-miterlimit="10" x1="653.146" y1="383.483" x2="653.146" y2="383.483"/>
		</g>
	</g>
	<g>
		<g>
			
				<line fill="none" stroke="#231F20" stroke-width="3" stroke-linecap="round" stroke-miterlimit="10" x1="570.269" y1="350.261" x2="570.269" y2="350.261"/>
			
				<line fill="none" stroke="#231F20" stroke-width="3" stroke-linecap="round" stroke-miterlimit="10" stroke-dasharray="0,7.8301" x1="577.803" y1="352.393" x2="649.379" y2="372.644"/>
			
				<line fill="none" stroke="#231F20" stroke-width="3" stroke-linecap="round" stroke-miterlimit="10" x1="653.146" y1="373.71" x2="653.146" y2="373.71"/>
		</g>
	</g>
	<g>
		<g>
			
				<line fill="none" stroke="#231F20" stroke-width="3" stroke-linecap="round" stroke-miterlimit="10" x1="570.269" y1="350.261" x2="570.269" y2="350.261"/>
			
				<line fill="none" stroke="#231F20" stroke-width="3" stroke-linecap="round" stroke-miterlimit="10" stroke-dasharray="0,7.6366" x1="577.803" y1="351.506" x2="649.379" y2="363.34"/>
			
				<line fill="none" stroke="#231F20" stroke-width="3" stroke-linecap="round" stroke-miterlimit="10" x1="653.146" y1="363.963" x2="653.146" y2="363.963"/>
		</g>
	</g>
	<g>
		<g>
			
				<line fill="none" stroke="#231F20" stroke-width="3" stroke-linecap="round" stroke-miterlimit="10" x1="570.269" y1="350.261" x2="570.269" y2="350.261"/>
			
				<line fill="none" stroke="#231F20" stroke-width="3" stroke-linecap="round" stroke-miterlimit="10" stroke-dasharray="0,7.9092" x1="578.153" y1="350.883" x2="653.058" y2="356.8"/>
			
				<line fill="none" stroke="#231F20" stroke-width="3" stroke-linecap="round" stroke-miterlimit="10" x1="657" y1="357.111" x2="657" y2="357.111"/>
		</g>
	</g>
	<g>
		<g>
			
				<line fill="none" stroke="#231F20" stroke-width="3" stroke-linecap="round" stroke-miterlimit="10" x1="570.269" y1="350.261" x2="570.269" y2="350.261"/>
			
				<line fill="none" stroke="#231F20" stroke-width="3" stroke-linecap="round" stroke-miterlimit="10" stroke-dasharray="0,8.3296" x1="578.557" y1="349.427" x2="649.003" y2="342.339"/>
			
				<line fill="none" stroke="#231F20" stroke-width="3" stroke-linecap="round" stroke-miterlimit="10" x1="653.146" y1="341.922" x2="653.146" y2="341.922"/>
		</g>
	</g>
	<g>
		<g>
			
				<line fill="none" stroke="#231F20" stroke-width="3" stroke-linecap="round" stroke-miterlimit="10" x1="570.269" y1="350.261" x2="570.269" y2="350.261"/>
			
				<line fill="none" stroke="#231F20" stroke-width="3" stroke-linecap="round" stroke-miterlimit="10" stroke-dasharray="0,7.6889" x1="577.803" y1="348.727" x2="649.379" y2="334.155"/>
			
				<line fill="none" stroke="#231F20" stroke-width="3" stroke-linecap="round" stroke-miterlimit="10" x1="653.146" y1="333.389" x2="653.146" y2="333.389"/>
		</g>
	</g>
	<g>
		<g>
			
				<line fill="none" stroke="#231F20" stroke-width="3" stroke-linecap="round" stroke-miterlimit="10" x1="570.269" y1="350.261" x2="570.269" y2="350.261"/>
			
				<line fill="none" stroke="#231F20" stroke-width="3" stroke-linecap="round" stroke-miterlimit="10" stroke-dasharray="0,7.8444" x1="577.803" y1="348.077" x2="649.379" y2="327.331"/>
			
				<line fill="none" stroke="#231F20" stroke-width="3" stroke-linecap="round" stroke-miterlimit="10" x1="653.146" y1="326.239" x2="653.146" y2="326.239"/>
		</g>
	</g>
	
		<line fill="none" stroke="#231F20" stroke-width="2" stroke-linecap="round" stroke-miterlimit="10" x1="507.74" y1="350" x2="570.269" y2="350"/>
	
		<line fill="none" stroke="#231F20" stroke-width="2" stroke-linecap="round" stroke-miterlimit="10" x1="65.256" y1="350" x2="15" y2="350"/>
	<text transform="matrix(1 0 0 1 195.334 376.7793)" font-family="'ArialMT'" font-size="76">HPLC</text>
	<polyline fill="none" stroke="#231F20" stroke-width="3" stroke-linecap="round" stroke-miterlimit="10" points="663,341.824 
		697.412,307.412 697.412,173.667 	"/>
	<polyline fill="none" stroke="#231F20" stroke-width="3" stroke-linecap="round" stroke-miterlimit="10" points="663,357.412 
		697.412,391.823 697.412,526.333 	"/>
	<rect x="507.74" y="341.922" width="32.76" height="15.189"/>
	<rect x="32.497" y="341.922" width="32.76" height="15.189"/>
	<g>
		<path fill-rule="evenodd" clip-rule="evenodd" d="M548.536,367.13c-2.076-5.297-4.922-10.183-7.897-15.192
			c-0.387,0.637-0.709,1.153-1.017,1.677c-2.579,4.399-5.132,8.816-6.899,13.621c-0.419,1.14-0.772,2.368-0.818,3.569
			c-0.145,3.699,2.359,7.114,5.906,8.312c3.629,1.224,7.64-0.03,9.869-3.097C549.71,373.227,549.765,370.265,548.536,367.13z"/>
		<g>
			<path fill="#D1D3D4" d="M539.052,376.234c0,0,0.179-0.278,0.48-0.552c0.151-0.135,0.335-0.251,0.544-0.351
				c0.21-0.1,0.45-0.128,0.708-0.188c0.514-0.128,1.111-0.229,1.71-0.357c0.295-0.078,0.594-0.138,0.865-0.22
				c0.264-0.082,0.499-0.19,0.621-0.267c0.276-0.213,0.586-0.462,0.816-0.662s0.395-0.39,0.548-0.597
				c0.285-0.459,0.567-1.008,0.826-1.496c0.257-0.479,0.455-0.908,0.748-1.16c0.133-0.131,0.277-0.224,0.377-0.287
				c0.091-0.065,0.171-0.093,0.165-0.094l0.018,0.004c-0.004-0.001,0.041,0.06,0.08,0.161c0.05,0.104,0.109,0.253,0.152,0.436
				c0.123,0.376,0.12,0.857,0.091,1.46c-0.002,0.301-0.025,0.627-0.09,0.989c-0.03,0.354-0.152,0.76-0.305,1.182
				c-0.177,0.441-0.454,0.876-0.735,1.236c-0.246,0.315-0.496,0.636-0.746,0.956c-0.499,0.505-0.976,0.78-1.417,1.021
				c-0.438,0.229-0.854,0.406-1.255,0.522c-0.798,0.233-1.523,0.302-2.142,0.27c-0.308-0.017-0.586,0.001-0.839-0.12
				c-0.253-0.106-0.476-0.306-0.656-0.507c-0.181-0.188-0.321-0.47-0.418-0.615c-0.096-0.162-0.142-0.306-0.142-0.296
				L539.052,376.234z"/>
		</g>
	</g>
	<g>
		<path fill-rule="evenodd" clip-rule="evenodd" d="M558.328,404.282c-2.076-5.296-4.922-10.183-7.897-15.191
			c-0.387,0.637-0.709,1.152-1.016,1.677c-2.579,4.398-5.132,8.815-6.9,13.62c-0.419,1.141-0.771,2.369-0.818,3.569
			c-0.144,3.7,2.359,7.114,5.907,8.312c3.628,1.225,7.639-0.03,9.868-3.096C559.503,410.379,559.557,407.418,558.328,404.282z"/>
		<g>
			<path fill="#D1D3D4" d="M548.844,413.388c0,0,0.179-0.278,0.48-0.552c0.151-0.135,0.335-0.251,0.544-0.352
				c0.21-0.099,0.45-0.127,0.708-0.188c0.514-0.128,1.111-0.229,1.71-0.357c0.295-0.078,0.595-0.138,0.865-0.22
				c0.265-0.082,0.5-0.19,0.621-0.267c0.276-0.213,0.586-0.462,0.816-0.663c0.229-0.2,0.395-0.389,0.548-0.597
				c0.285-0.459,0.566-1.008,0.826-1.495c0.257-0.48,0.455-0.909,0.748-1.161c0.133-0.131,0.277-0.224,0.377-0.287
				c0.091-0.065,0.171-0.093,0.165-0.094l0.018,0.004c-0.004-0.001,0.041,0.06,0.08,0.161c0.05,0.104,0.109,0.253,0.151,0.436
				c0.124,0.376,0.121,0.857,0.092,1.46c-0.002,0.301-0.025,0.627-0.09,0.989c-0.03,0.354-0.152,0.76-0.305,1.182
				c-0.177,0.441-0.454,0.875-0.735,1.236c-0.246,0.315-0.496,0.636-0.746,0.956c-0.499,0.505-0.976,0.781-1.417,1.022
				c-0.438,0.229-0.854,0.406-1.254,0.521c-0.799,0.234-1.523,0.302-2.142,0.271c-0.309-0.017-0.587,0.001-0.84-0.12
				c-0.253-0.107-0.475-0.306-0.655-0.507c-0.182-0.188-0.322-0.47-0.418-0.615c-0.097-0.162-0.143-0.306-0.143-0.296
				L548.844,413.388z"/>
		</g>
	</g>
	<g>
		<path fill-rule="evenodd" clip-rule="evenodd" d="M539.808,437.794c-2.075-5.296-4.922-10.183-7.897-15.191
			c-0.387,0.637-0.709,1.152-1.016,1.677c-2.579,4.398-5.132,8.815-6.899,13.62c-0.42,1.141-0.772,2.369-0.819,3.569
			c-0.144,3.7,2.359,7.114,5.907,8.312c3.628,1.225,7.64-0.03,9.868-3.096C540.982,443.891,541.037,440.93,539.808,437.794z"/>
		<g>
			<path fill="#D1D3D4" d="M530.323,446.899c0,0,0.179-0.278,0.48-0.552c0.151-0.136,0.335-0.251,0.544-0.352
				c0.21-0.099,0.45-0.127,0.708-0.188c0.514-0.128,1.111-0.229,1.71-0.357c0.296-0.078,0.595-0.138,0.865-0.221
				c0.265-0.081,0.5-0.19,0.622-0.266c0.275-0.213,0.585-0.462,0.815-0.663c0.23-0.2,0.396-0.39,0.549-0.597
				c0.285-0.459,0.566-1.008,0.825-1.496c0.258-0.479,0.456-0.908,0.749-1.16c0.133-0.131,0.277-0.224,0.377-0.287
				c0.091-0.065,0.171-0.093,0.165-0.094l0.018,0.004c-0.004-0.001,0.041,0.06,0.08,0.161c0.05,0.104,0.109,0.253,0.151,0.436
				c0.124,0.376,0.121,0.857,0.092,1.46c-0.002,0.301-0.026,0.628-0.09,0.99c-0.031,0.354-0.153,0.76-0.306,1.181
				c-0.177,0.442-0.454,0.876-0.735,1.236c-0.246,0.315-0.496,0.636-0.746,0.956c-0.498,0.505-0.976,0.781-1.417,1.022
				c-0.438,0.229-0.854,0.406-1.254,0.521c-0.798,0.234-1.523,0.302-2.142,0.271c-0.309-0.017-0.586,0.001-0.84-0.12
				c-0.252-0.106-0.475-0.306-0.655-0.507c-0.182-0.188-0.322-0.47-0.418-0.615c-0.097-0.162-0.143-0.306-0.143-0.296
				L530.323,446.899z"/>
		</g>
	</g>
</g>
</svg>
